<svg xmlns="http://www.w3.org/2000/svg" viewBox="18.17 -81.83 763.66 763.66" fill="none" role="img" aria-label="beam">
<path d="M59.08 196.34L59.08 403.66Z" fill="none" stroke="#1d4ed8" stroke-width="14.319" stroke-linecap="round" stroke-linejoin="round"/>
<path d="M74.76 393.24L505.8 574.23 74.76 206.76 74.76 393.24Z" fill="#9db8f2" stroke="none"/>
<path d="M505.8 574.23L505.8 25.77 74.76 206.76 505.8 574.23Z" fill="#9db8f2" stroke="none"/>
<path d="M537.15 582.14L615.52 582.14 537.15 17.86 537.15 582.14Z" fill="#9db8f2" stroke="none"/>
<path d="M615.52 582.14L615.52 17.86 537.15 17.86 615.52 582.14Z" fill="#9db8f2" stroke="none"/>
<path d="M646.87 582.14L725.24 582.14 646.87 17.86 646.87 582.14Z" fill="#9db8f2" stroke="none"/>
<path d="M725.24 582.14L725.24 17.86 646.87 17.86 725.24 582.14Z" fill="#9db8f2" stroke="none"/>
<path d="M74.76 206.76L74.76 393.24Z" fill="none" stroke="#1d4ed8" stroke-width="14.319" stroke-linecap="round" stroke-linejoin="round"/>
<path d="M631.2 2.19L521.48 2.19" fill="none" stroke="#1d4ed8" stroke-width="14.319" stroke-linecap="round" stroke-linejoin="round"/>
<path d="M521.48 2.19L521.48 597.81Z" fill="none" stroke="#1d4ed8" stroke-width="14.319" stroke-linecap="round" stroke-linejoin="round"/>
<path d="M537.15 17.86L537.15 582.14Z" fill="none" stroke="#1d4ed8" stroke-width="14.319" stroke-linecap="round" stroke-linejoin="round"/>
<path d="M505.8 25.77L505.8 574.23Z" fill="none" stroke="#1d4ed8" stroke-width="14.319" stroke-linecap="round" stroke-linejoin="round"/>
<path d="M631.2 2.19L631.2 597.81Z" fill="none" stroke="#1d4ed8" stroke-width="14.319" stroke-linecap="round" stroke-linejoin="round"/>
<path d="M59.08 403.66L521.48 597.81" fill="none" stroke="#1d4ed8" stroke-width="14.319" stroke-linecap="round" stroke-linejoin="round"/>
<path d="M74.76 393.24L505.8 574.23" fill="none" stroke="#1d4ed8" stroke-width="14.319" stroke-linecap="round" stroke-linejoin="round"/>
<path d="M521.48 2.19L59.08 196.34" fill="none" stroke="#1d4ed8" stroke-width="14.319" stroke-linecap="round" stroke-linejoin="round"/>
<path d="M505.8 25.77L74.76 206.76" fill="none" stroke="#1d4ed8" stroke-width="14.319" stroke-linecap="round" stroke-linejoin="round"/>
<path d="M631.2 597.81L521.48 597.81" fill="none" stroke="#1d4ed8" stroke-width="14.319" stroke-linecap="round" stroke-linejoin="round"/>
<path d="M740.92 2.19L631.2 2.19" fill="none" stroke="#1d4ed8" stroke-width="14.319" stroke-linecap="round" stroke-linejoin="round"/>
<path d="M725.24 17.86L646.87 17.86" fill="none" stroke="#1d4ed8" stroke-width="14.319" stroke-linecap="round" stroke-linejoin="round"/>
<path d="M615.52 17.86L537.15 17.86" fill="none" stroke="#1d4ed8" stroke-width="14.319" stroke-linecap="round" stroke-linejoin="round"/>
<path d="M631.2 2.19L631.2 597.81Z" fill="none" stroke="#1d4ed8" stroke-width="14.319" stroke-linecap="round" stroke-linejoin="round"/>
<path d="M646.87 17.86L646.87 582.14Z" fill="none" stroke="#1d4ed8" stroke-width="14.319" stroke-linecap="round" stroke-linejoin="round"/>
<path d="M615.52 17.86L615.52 582.14Z" fill="none" stroke="#1d4ed8" stroke-width="14.319" stroke-linecap="round" stroke-linejoin="round"/>
<path d="M740.92 2.19L740.92 597.81Z" fill="none" stroke="#1d4ed8" stroke-width="14.319" stroke-linecap="round" stroke-linejoin="round"/>
<path d="M725.24 17.86L725.24 582.14Z" fill="none" stroke="#1d4ed8" stroke-width="14.319" stroke-linecap="round" stroke-linejoin="round"/>
<path d="M740.92 597.81L631.2 597.81" fill="none" stroke="#1d4ed8" stroke-width="14.319" stroke-linecap="round" stroke-linejoin="round"/>
<path d="M725.24 582.14L646.87 582.14" fill="none" stroke="#1d4ed8" stroke-width="14.319" stroke-linecap="round" stroke-linejoin="round"/>
<path d="M615.52 582.14L537.15 582.14" fill="none" stroke="#1d4ed8" stroke-width="14.319" stroke-linecap="round" stroke-linejoin="round"/>
</svg>
