<svg xmlns="http://www.w3.org/2000/svg" viewBox="66.50 -33.50 667.00 667.00" fill="none" role="img" aria-label="i joist">
<path d="M541.05 2.23L697.77 2.23" fill="none" stroke="#1d4ed8" stroke-width="12.506" stroke-linecap="round" stroke-linejoin="round"/>
<path d="M129.12 381.34L129.12 373.35 102.23 373.35 129.12 381.34Z" fill="#9db8f2" stroke="none"/>
<path d="M129.12 226.65L129.12 218.66 102.23 226.65 129.12 226.65Z" fill="#9db8f2" stroke="none"/>
<path d="M117.9 396.92L525.38 573.88 117.9 394.35 117.9 396.92Z" fill="#9db8f2" stroke="none"/>
<path d="M525.38 573.88L525.38 515.43 117.9 394.35 525.38 573.88Z" fill="#9db8f2" stroke="none"/>
<path d="M117.9 205.65L525.38 84.57 117.9 203.08 117.9 205.65Z" fill="#9db8f2" stroke="none"/>
<path d="M525.38 84.57L525.38 26.12 117.9 203.08 525.38 84.57Z" fill="#9db8f2" stroke="none"/>
<path d="M129.12 381.34L541.05 503.74 129.12 373.35 129.12 381.34Z" fill="#9db8f2" stroke="none"/>
<path d="M541.05 503.74L541.05 485.59 129.12 373.35 541.05 503.74Z" fill="#9db8f2" stroke="none"/>
<path d="M129.12 226.65L541.05 116.28 129.12 218.66 129.12 226.65Z" fill="#9db8f2" stroke="none"/>
<path d="M541.05 116.28L541.05 96.26 129.12 218.66 541.05 116.28Z" fill="#9db8f2" stroke="none"/>
<path d="M144.8 361.37L591.98 483.22 144.8 238.68 144.8 361.37Z" fill="#9db8f2" stroke="none"/>
<path d="M591.98 483.22L591.98 118.86 144.8 238.68 591.98 483.22Z" fill="#9db8f2" stroke="none"/>
<path d="M541.05 503.74L607.65 503.74 541.05 485.59 541.05 503.74Z" fill="#9db8f2" stroke="none"/>
<path d="M541.05 116.28L607.65 98.43 541.05 96.26 541.05 116.28Z" fill="#9db8f2" stroke="none"/>
<path d="M607.65 98.43L607.65 96.26 541.05 96.26 607.65 98.43Z" fill="#9db8f2" stroke="none"/>
<path d="M556.72 582.1L682.1 582.1 556.72 519.41 556.72 582.1Z" fill="#9db8f2" stroke="none"/>
<path d="M682.1 582.1L682.1 519.41 556.72 519.41 682.1 582.1Z" fill="#9db8f2" stroke="none"/>
<path d="M556.72 80.59L682.1 80.59 556.72 17.9 556.72 80.59Z" fill="#9db8f2" stroke="none"/>
<path d="M682.1 80.59L682.1 17.9 556.72 17.9 682.1 80.59Z" fill="#9db8f2" stroke="none"/>
<path d="M631.16 503.74L697.77 503.74 631.16 487.63 631.16 503.74Z" fill="#9db8f2" stroke="none"/>
<path d="M631.16 112.37L697.77 96.26 631.16 96.26 631.16 112.37Z" fill="#9db8f2" stroke="none"/>
<path d="M556.72 17.9L682.1 17.9" fill="none" stroke="#1d4ed8" stroke-width="12.506" stroke-linecap="round" stroke-linejoin="round"/>
<path d="M697.77 2.23L697.77 96.26Z" fill="none" stroke="#1d4ed8" stroke-width="12.506" stroke-linecap="round" stroke-linejoin="round"/>
<path d="M682.1 17.9L682.1 80.59Z" fill="none" stroke="#1d4ed8" stroke-width="12.506" stroke-linecap="round" stroke-linejoin="round"/>
<path d="M697.77 96.26L631.16 96.26" fill="none" stroke="#1d4ed8" stroke-width="12.506" stroke-linecap="round" stroke-linejoin="round"/>
<path d="M607.65 96.26L541.05 96.26" fill="none" stroke="#1d4ed8" stroke-width="12.506" stroke-linecap="round" stroke-linejoin="round"/>
<path d="M682.1 80.59L556.72 80.59" fill="none" stroke="#1d4ed8" stroke-width="12.506" stroke-linecap="round" stroke-linejoin="round"/>
<path d="M541.05 96.26L541.05 2.23Z" fill="none" stroke="#1d4ed8" stroke-width="12.506" stroke-linecap="round" stroke-linejoin="round"/>
<path d="M556.72 80.59L556.72 17.9Z" fill="none" stroke="#1d4ed8" stroke-width="12.506" stroke-linecap="round" stroke-linejoin="round"/>
<path d="M525.38 84.57L525.38 26.12Z" fill="none" stroke="#1d4ed8" stroke-width="12.506" stroke-linecap="round" stroke-linejoin="round"/>
<path d="M541.05 503.74L607.65 503.74" fill="none" stroke="#1d4ed8" stroke-width="12.506" stroke-linecap="round" stroke-linejoin="round"/>
<path d="M556.72 519.41L682.1 519.41" fill="none" stroke="#1d4ed8" stroke-width="12.506" stroke-linecap="round" stroke-linejoin="round"/>
<path d="M631.16 503.74L697.77 503.74" fill="none" stroke="#1d4ed8" stroke-width="12.506" stroke-linecap="round" stroke-linejoin="round"/>
<path d="M697.77 503.74L697.77 597.77Z" fill="none" stroke="#1d4ed8" stroke-width="12.506" stroke-linecap="round" stroke-linejoin="round"/>
<path d="M682.1 519.41L682.1 582.1Z" fill="none" stroke="#1d4ed8" stroke-width="12.506" stroke-linecap="round" stroke-linejoin="round"/>
<path d="M697.77 597.77L541.05 597.77" fill="none" stroke="#1d4ed8" stroke-width="12.506" stroke-linecap="round" stroke-linejoin="round"/>
<path d="M682.1 582.1L556.72 582.1" fill="none" stroke="#1d4ed8" stroke-width="12.506" stroke-linecap="round" stroke-linejoin="round"/>
<path d="M541.05 597.77L541.05 503.74Z" fill="none" stroke="#1d4ed8" stroke-width="12.506" stroke-linecap="round" stroke-linejoin="round"/>
<path d="M525.38 573.88L525.38 515.43Z" fill="none" stroke="#1d4ed8" stroke-width="12.506" stroke-linecap="round" stroke-linejoin="round"/>
<path d="M556.72 582.1L556.72 519.41Z" fill="none" stroke="#1d4ed8" stroke-width="12.506" stroke-linecap="round" stroke-linejoin="round"/>
<path d="M631.16 96.26L631.16 503.74Z" fill="none" stroke="#1d4ed8" stroke-width="12.506" stroke-linecap="round" stroke-linejoin="round"/>
<path d="M607.65 96.26L607.65 503.74Z" fill="none" stroke="#1d4ed8" stroke-width="12.506" stroke-linecap="round" stroke-linejoin="round"/>
<path d="M591.98 118.86L591.98 483.22Z" fill="none" stroke="#1d4ed8" stroke-width="12.506" stroke-linecap="round" stroke-linejoin="round"/>
<path d="M102.23 192.8L541.05 2.23" fill="none" stroke="#1d4ed8" stroke-width="12.506" stroke-linecap="round" stroke-linejoin="round"/>
<path d="M117.9 203.08L525.38 26.12" fill="none" stroke="#1d4ed8" stroke-width="12.506" stroke-linecap="round" stroke-linejoin="round"/>
<path d="M541.05 597.77L102.23 407.2" fill="none" stroke="#1d4ed8" stroke-width="12.506" stroke-linecap="round" stroke-linejoin="round"/>
<path d="M525.38 573.88L117.9 396.92" fill="none" stroke="#1d4ed8" stroke-width="12.506" stroke-linecap="round" stroke-linejoin="round"/>
<path d="M102.23 226.65L541.05 96.26" fill="none" stroke="#1d4ed8" stroke-width="12.506" stroke-linecap="round" stroke-linejoin="round"/>
<path d="M117.9 205.65L525.38 84.57" fill="none" stroke="#1d4ed8" stroke-width="12.506" stroke-linecap="round" stroke-linejoin="round"/>
<path d="M102.23 373.35L541.05 503.74" fill="none" stroke="#1d4ed8" stroke-width="12.506" stroke-linecap="round" stroke-linejoin="round"/>
<path d="M117.9 394.35L525.38 515.43" fill="none" stroke="#1d4ed8" stroke-width="12.506" stroke-linecap="round" stroke-linejoin="round"/>
<path d="M102.23 373.35L129.12 373.35" fill="none" stroke="#1d4ed8" stroke-width="12.506" stroke-linecap="round" stroke-linejoin="round"/>
<path d="M129.12 373.35L129.12 226.65Z" fill="none" stroke="#1d4ed8" stroke-width="12.506" stroke-linecap="round" stroke-linejoin="round"/>
<path d="M144.8 361.37L144.8 238.68Z" fill="none" stroke="#1d4ed8" stroke-width="12.506" stroke-linecap="round" stroke-linejoin="round"/>
<path d="M129.12 226.65L102.23 226.65" fill="none" stroke="#1d4ed8" stroke-width="12.506" stroke-linecap="round" stroke-linejoin="round"/>
<path d="M102.23 192.8L102.23 226.65Z" fill="none" stroke="#1d4ed8" stroke-width="12.506" stroke-linecap="round" stroke-linejoin="round"/>
<path d="M117.9 203.08L117.9 205.65Z" fill="none" stroke="#1d4ed8" stroke-width="12.506" stroke-linecap="round" stroke-linejoin="round"/>
<path d="M102.23 407.2L102.23 373.35Z" fill="none" stroke="#1d4ed8" stroke-width="12.506" stroke-linecap="round" stroke-linejoin="round"/>
<path d="M117.9 396.92L117.9 394.35Z" fill="none" stroke="#1d4ed8" stroke-width="12.506" stroke-linecap="round" stroke-linejoin="round"/>
<path d="M129.12 226.65L607.65 98.43" fill="none" stroke="#1d4ed8" stroke-width="12.506" stroke-linecap="round" stroke-linejoin="round"/>
<path d="M144.8 238.68L591.98 118.86" fill="none" stroke="#1d4ed8" stroke-width="12.506" stroke-linecap="round" stroke-linejoin="round"/>
<path d="M129.12 373.35L607.65 503.74" fill="none" stroke="#1d4ed8" stroke-width="12.506" stroke-linecap="round" stroke-linejoin="round"/>
<path d="M144.8 361.37L591.98 483.22" fill="none" stroke="#1d4ed8" stroke-width="12.506" stroke-linecap="round" stroke-linejoin="round"/>
<path d="M619.41 519.41L619.41 80.59Z" fill="none" stroke="#1d4ed8" stroke-width="12.506" stroke-linecap="round" stroke-linejoin="round"/>
<path d="M631.16 112.37L697.77 96.26" fill="none" stroke="#1d4ed8" stroke-width="12.506" stroke-linecap="round" stroke-linejoin="round"/>
<path d="M697.77 503.74L631.16 487.63" fill="none" stroke="#1d4ed8" stroke-width="12.506" stroke-linecap="round" stroke-linejoin="round"/>
</svg>
