<svg xmlns="http://www.w3.org/2000/svg" viewBox="-20.18 -120.18 840.36 840.36" fill="none" role="img" aria-label="rafter">
<path d="M24.84 314.41L169.24 385.14" fill="none" stroke="#1d4ed8" stroke-width="15.757" stroke-linecap="round" stroke-linejoin="round"/>
<path d="M99.29 533.13L115.33 552.9 99.29 448.18 99.29 533.13Z" fill="#9db8f2" stroke="none"/>
<path d="M115.33 552.9L115.33 454.07 99.29 448.18 115.33 552.9Z" fill="#9db8f2" stroke="none"/>
<path d="M122.11 439.91L122.11 425.95 108.61 434.95 122.11 439.91Z" fill="#9db8f2" stroke="none"/>
<path d="M168.65 376.14L168.65 373.06 118.3 351.48 168.65 376.14Z" fill="#9db8f2" stroke="none"/>
<path d="M168.65 376.14L171.46 374.27 168.65 373.06 168.65 376.14Z" fill="#9db8f2" stroke="none"/>
<path d="M186.99 363.91L186.99 359.33 112.15 331.84 186.99 363.91Z" fill="#9db8f2" stroke="none"/>
<path d="M186.99 363.91L191.42 360.96 186.99 359.33 186.99 363.91Z" fill="#9db8f2" stroke="none"/>
<path d="M207.53 350.22L207.53 341.77 82.06 304.13 207.53 350.22Z" fill="#9db8f2" stroke="none"/>
<path d="M207.53 350.22L216.27 344.4 207.53 341.77 207.53 350.22Z" fill="#9db8f2" stroke="none"/>
<path d="M130.96 567.13L303.95 567.13 130.96 452.8 130.96 567.13Z" fill="#9db8f2" stroke="none"/>
<path d="M303.95 567.13L303.95 337.47 130.96 452.8 303.95 567.13Z" fill="#9db8f2" stroke="none"/>
<path d="M303.95 567.13L392.18 508.31 303.95 337.47 303.95 567.13Z" fill="#9db8f2" stroke="none"/>
<path d="M392.18 421.44L392.18 278.65 303.95 337.47 392.18 421.44Z" fill="#9db8f2" stroke="none"/>
<path d="M392.18 421.44L523.96 421.44 392.18 278.65 392.18 421.44Z" fill="#9db8f2" stroke="none"/>
<path d="M523.96 421.44L523.96 190.8 392.18 278.65 523.96 421.44Z" fill="#9db8f2" stroke="none"/>
<path d="M525.18 466.91L525.18 437.07 443.94 437.07 525.18 466.91Z" fill="#9db8f2" stroke="none"/>
<path d="M407.82 493.29L595.39 585.16 407.82 475.56 407.82 493.29Z" fill="#9db8f2" stroke="none"/>
<path d="M595.39 585.16L595.39 555.95 407.82 475.56 595.39 585.16Z" fill="#9db8f2" stroke="none"/>
<path d="M407.82 458.55L595.39 538.94 407.82 440.45 407.82 458.55Z" fill="#9db8f2" stroke="none"/>
<path d="M595.39 538.94L595.39 509.36 407.82 440.45 595.39 538.94Z" fill="#9db8f2" stroke="none"/>
<path d="M525.18 466.91L604.6 496.09 525.18 437.07 525.18 466.91Z" fill="#9db8f2" stroke="none"/>
<path d="M604.6 496.09L604.6 460.9 525.18 437.07 604.6 496.09Z" fill="#9db8f2" stroke="none"/>
<path d="M604.6 496.09L721.9 496.09 604.6 460.9 604.6 496.09Z" fill="#9db8f2" stroke="none"/>
<path d="M122.11 439.91L744.52 24.97 122.11 425.95 122.11 439.91Z" fill="#9db8f2" stroke="none"/>
<path d="M744.52 24.97L744.52 11.01 122.11 425.95 744.52 24.97Z" fill="#9db8f2" stroke="none"/>
<path d="M744.52 24.97L758.02 15.97 744.52 11.01 744.52 24.97Z" fill="#9db8f2" stroke="none"/>
<path d="M611.03 589.88L767.34 589.88 611.03 558.61 611.03 589.88Z" fill="#9db8f2" stroke="none"/>
<path d="M767.34 589.88L767.34 558.61 611.03 558.61 767.34 589.88Z" fill="#9db8f2" stroke="none"/>
<path d="M611.03 542.98L767.34 542.98 611.03 511.72 611.03 542.98Z" fill="#9db8f2" stroke="none"/>
<path d="M767.34 542.98L767.34 511.72 611.03 511.72 767.34 542.98Z" fill="#9db8f2" stroke="none"/>
<path d="M523.96 421.44L767.34 259.19 523.96 190.8 523.96 421.44Z" fill="#9db8f2" stroke="none"/>
<path d="M767.34 259.19L767.34 28.55 523.96 190.8 767.34 259.19Z" fill="#9db8f2" stroke="none"/>
<path d="M392.18 508.31L392.18 421.44 303.95 337.47 392.18 508.31Z" fill="#9db8f2" stroke="none"/>
<path d="M118.3 351.48L168.65 376.14" fill="none" stroke="#1d4ed8" stroke-width="15.757" stroke-linecap="round" stroke-linejoin="round"/>
<path d="M400 498.16L603.21 597.69" fill="none" stroke="#1d4ed8" stroke-width="15.757" stroke-linecap="round" stroke-linejoin="round"/>
<path d="M407.82 493.29L595.39 585.16" fill="none" stroke="#1d4ed8" stroke-width="15.757" stroke-linecap="round" stroke-linejoin="round"/>
<path d="M775.16 597.69L603.21 597.69" fill="none" stroke="#1d4ed8" stroke-width="15.757" stroke-linecap="round" stroke-linejoin="round"/>
<path d="M603.21 597.69L603.21 550.8Z" fill="none" stroke="#1d4ed8" stroke-width="15.757" stroke-linecap="round" stroke-linejoin="round"/>
<path d="M595.39 585.16L595.39 555.95Z" fill="none" stroke="#1d4ed8" stroke-width="15.757" stroke-linecap="round" stroke-linejoin="round"/>
<path d="M611.03 589.88L611.03 558.61Z" fill="none" stroke="#1d4ed8" stroke-width="15.757" stroke-linecap="round" stroke-linejoin="round"/>
<path d="M603.21 550.8L775.16 550.8" fill="none" stroke="#1d4ed8" stroke-width="15.757" stroke-linecap="round" stroke-linejoin="round"/>
<path d="M611.03 558.61L767.34 558.61" fill="none" stroke="#1d4ed8" stroke-width="15.757" stroke-linecap="round" stroke-linejoin="round"/>
<path d="M775.16 597.69L775.16 550.8Z" fill="none" stroke="#1d4ed8" stroke-width="15.757" stroke-linecap="round" stroke-linejoin="round"/>
<path d="M767.34 542.98L611.03 542.98" fill="none" stroke="#1d4ed8" stroke-width="15.757" stroke-linecap="round" stroke-linejoin="round"/>
<path d="M603.21 550.8L603.21 503.9Z" fill="none" stroke="#1d4ed8" stroke-width="15.757" stroke-linecap="round" stroke-linejoin="round"/>
<path d="M595.39 538.94L595.39 509.36Z" fill="none" stroke="#1d4ed8" stroke-width="15.757" stroke-linecap="round" stroke-linejoin="round"/>
<path d="M611.03 542.98L611.03 511.72Z" fill="none" stroke="#1d4ed8" stroke-width="15.757" stroke-linecap="round" stroke-linejoin="round"/>
<path d="M603.21 503.9L775.16 503.9" fill="none" stroke="#1d4ed8" stroke-width="15.757" stroke-linecap="round" stroke-linejoin="round"/>
<path d="M604.6 496.09L721.9 496.09" fill="none" stroke="#1d4ed8" stroke-width="15.757" stroke-linecap="round" stroke-linejoin="round"/>
<path d="M611.03 511.72L767.34 511.72" fill="none" stroke="#1d4ed8" stroke-width="15.757" stroke-linecap="round" stroke-linejoin="round"/>
<path d="M775.16 550.8L775.16 503.9Z" fill="none" stroke="#1d4ed8" stroke-width="15.757" stroke-linecap="round" stroke-linejoin="round"/>
<path d="M24.84 291.44L208.56 358.93" fill="none" stroke="#1d4ed8" stroke-width="15.757" stroke-linecap="round" stroke-linejoin="round"/>
<path d="M82.06 304.13L207.53 350.22" fill="none" stroke="#1d4ed8" stroke-width="15.757" stroke-linecap="round" stroke-linejoin="round"/>
<path d="M112.15 331.84L191.42 360.96" fill="none" stroke="#1d4ed8" stroke-width="15.757" stroke-linecap="round" stroke-linejoin="round"/>
<path d="M400 429.25L603.21 503.9" fill="none" stroke="#1d4ed8" stroke-width="15.757" stroke-linecap="round" stroke-linejoin="round"/>
<path d="M443.94 437.07L604.6 496.09" fill="none" stroke="#1d4ed8" stroke-width="15.757" stroke-linecap="round" stroke-linejoin="round"/>
<path d="M407.82 440.45L595.39 509.36" fill="none" stroke="#1d4ed8" stroke-width="15.757" stroke-linecap="round" stroke-linejoin="round"/>
<path d="M24.84 302.93L187.8 372.77" fill="none" stroke="#1d4ed8" stroke-width="15.757" stroke-linecap="round" stroke-linejoin="round"/>
<path d="M112.15 331.84L186.99 363.91" fill="none" stroke="#1d4ed8" stroke-width="15.757" stroke-linecap="round" stroke-linejoin="round"/>
<path d="M118.3 351.48L171.46 374.27" fill="none" stroke="#1d4ed8" stroke-width="15.757" stroke-linecap="round" stroke-linejoin="round"/>
<path d="M400 463.71L603.21 550.8" fill="none" stroke="#1d4ed8" stroke-width="15.757" stroke-linecap="round" stroke-linejoin="round"/>
<path d="M407.82 458.55L595.39 538.94" fill="none" stroke="#1d4ed8" stroke-width="15.757" stroke-linecap="round" stroke-linejoin="round"/>
<path d="M407.82 475.56L595.39 555.95" fill="none" stroke="#1d4ed8" stroke-width="15.757" stroke-linecap="round" stroke-linejoin="round"/>
<path d="M775.16 503.9L526.33 429.25" fill="none" stroke="#1d4ed8" stroke-width="15.757" stroke-linecap="round" stroke-linejoin="round"/>
<path d="M721.9 496.09L524.08 436.74" fill="none" stroke="#1d4ed8" stroke-width="15.757" stroke-linecap="round" stroke-linejoin="round"/>
<path d="M234.43 341.68L66.95 291.44" fill="none" stroke="#1d4ed8" stroke-width="15.757" stroke-linecap="round" stroke-linejoin="round"/>
<path d="M216.27 344.4L82.06 304.13" fill="none" stroke="#1d4ed8" stroke-width="15.757" stroke-linecap="round" stroke-linejoin="round"/>
<path d="M123.14 574.94L91.48 535.91" fill="none" stroke="#1d4ed8" stroke-width="15.757" stroke-linecap="round" stroke-linejoin="round"/>
<path d="M115.33 552.9L99.29 533.13" fill="none" stroke="#1d4ed8" stroke-width="15.757" stroke-linecap="round" stroke-linejoin="round"/>
<path d="M775.16 13.94L775.16 263.37Z" fill="none" stroke="#1d4ed8" stroke-width="15.757" stroke-linecap="round" stroke-linejoin="round"/>
<path d="M767.34 28.55L767.34 259.19Z" fill="none" stroke="#1d4ed8" stroke-width="15.757" stroke-linecap="round" stroke-linejoin="round"/>
<path d="M775.16 503.9L775.16 597.69Z" fill="none" stroke="#1d4ed8" stroke-width="15.757" stroke-linecap="round" stroke-linejoin="round"/>
<path d="M767.34 511.72L767.34 542.98Z" fill="none" stroke="#1d4ed8" stroke-width="15.757" stroke-linecap="round" stroke-linejoin="round"/>
<path d="M767.34 558.61L767.34 589.88Z" fill="none" stroke="#1d4ed8" stroke-width="15.757" stroke-linecap="round" stroke-linejoin="round"/>
<path d="M775.16 597.69L603.21 597.69" fill="none" stroke="#1d4ed8" stroke-width="15.757" stroke-linecap="round" stroke-linejoin="round"/>
<path d="M767.34 589.88L611.03 589.88" fill="none" stroke="#1d4ed8" stroke-width="15.757" stroke-linecap="round" stroke-linejoin="round"/>
<path d="M24.84 314.41L24.84 291.44Z" fill="none" stroke="#1d4ed8" stroke-width="15.757" stroke-linecap="round" stroke-linejoin="round"/>
<path d="M400 498.16L400 512.49Z" fill="none" stroke="#1d4ed8" stroke-width="15.757" stroke-linecap="round" stroke-linejoin="round"/>
<path d="M400 512.49L306.32 574.94" fill="none" stroke="#1d4ed8" stroke-width="15.757" stroke-linecap="round" stroke-linejoin="round"/>
<path d="M392.18 508.31L303.95 567.13" fill="none" stroke="#1d4ed8" stroke-width="15.757" stroke-linecap="round" stroke-linejoin="round"/>
<path d="M306.32 574.94L123.14 574.94" fill="none" stroke="#1d4ed8" stroke-width="15.757" stroke-linecap="round" stroke-linejoin="round"/>
<path d="M303.95 567.13L130.96 567.13" fill="none" stroke="#1d4ed8" stroke-width="15.757" stroke-linecap="round" stroke-linejoin="round"/>
<path d="M123.14 574.94L123.14 448.62Z" fill="none" stroke="#1d4ed8" stroke-width="15.757" stroke-linecap="round" stroke-linejoin="round"/>
<path d="M115.33 552.9L115.33 454.07Z" fill="none" stroke="#1d4ed8" stroke-width="15.757" stroke-linecap="round" stroke-linejoin="round"/>
<path d="M130.96 567.13L130.96 452.8Z" fill="none" stroke="#1d4ed8" stroke-width="15.757" stroke-linecap="round" stroke-linejoin="round"/>
<path d="M775.16 13.94L123.14 448.62" fill="none" stroke="#1d4ed8" stroke-width="15.757" stroke-linecap="round" stroke-linejoin="round"/>
<path d="M758.02 15.97L122.11 439.91" fill="none" stroke="#1d4ed8" stroke-width="15.757" stroke-linecap="round" stroke-linejoin="round"/>
<path d="M767.34 28.55L130.96 452.8" fill="none" stroke="#1d4ed8" stroke-width="15.757" stroke-linecap="round" stroke-linejoin="round"/>
<path d="M400 429.25L526.33 429.25" fill="none" stroke="#1d4ed8" stroke-width="15.757" stroke-linecap="round" stroke-linejoin="round"/>
<path d="M392.18 421.44L523.96 421.44" fill="none" stroke="#1d4ed8" stroke-width="15.757" stroke-linecap="round" stroke-linejoin="round"/>
<path d="M443.94 437.07L526.33 437.07" fill="none" stroke="#1d4ed8" stroke-width="15.757" stroke-linecap="round" stroke-linejoin="round"/>
<path d="M775.16 263.37L526.33 429.25" fill="none" stroke="#1d4ed8" stroke-width="15.757" stroke-linecap="round" stroke-linejoin="round"/>
<path d="M767.34 259.19L523.96 421.44" fill="none" stroke="#1d4ed8" stroke-width="15.757" stroke-linecap="round" stroke-linejoin="round"/>
<path d="M400 498.16L400 463.71Z" fill="none" stroke="#1d4ed8" stroke-width="15.757" stroke-linecap="round" stroke-linejoin="round"/>
<path d="M392.18 508.31L392.18 421.44Z" fill="none" stroke="#1d4ed8" stroke-width="15.757" stroke-linecap="round" stroke-linejoin="round"/>
<path d="M407.82 493.29L407.82 475.56Z" fill="none" stroke="#1d4ed8" stroke-width="15.757" stroke-linecap="round" stroke-linejoin="round"/>
<path d="M400 463.71L400 429.25Z" fill="none" stroke="#1d4ed8" stroke-width="15.757" stroke-linecap="round" stroke-linejoin="round"/>
<path d="M407.82 458.55L407.82 440.45Z" fill="none" stroke="#1d4ed8" stroke-width="15.757" stroke-linecap="round" stroke-linejoin="round"/>
<path d="M123.14 448.62L91.48 436.98" fill="none" stroke="#1d4ed8" stroke-width="15.757" stroke-linecap="round" stroke-linejoin="round"/>
<path d="M122.11 439.91L108.61 434.95" fill="none" stroke="#1d4ed8" stroke-width="15.757" stroke-linecap="round" stroke-linejoin="round"/>
<path d="M115.33 454.07L99.29 448.18" fill="none" stroke="#1d4ed8" stroke-width="15.757" stroke-linecap="round" stroke-linejoin="round"/>
<path d="M91.48 436.98L91.48 535.91Z" fill="none" stroke="#1d4ed8" stroke-width="15.757" stroke-linecap="round" stroke-linejoin="round"/>
<path d="M99.29 448.18L99.29 533.13Z" fill="none" stroke="#1d4ed8" stroke-width="15.757" stroke-linecap="round" stroke-linejoin="round"/>
<path d="M743.49 2.31L91.48 436.98" fill="none" stroke="#1d4ed8" stroke-width="15.757" stroke-linecap="round" stroke-linejoin="round"/>
<path d="M216.27 344.4L207.53 350.22" fill="none" stroke="#1d4ed8" stroke-width="15.757" stroke-linecap="round" stroke-linejoin="round"/>
<path d="M191.42 360.96L186.99 363.91" fill="none" stroke="#1d4ed8" stroke-width="15.757" stroke-linecap="round" stroke-linejoin="round"/>
<path d="M171.46 374.27L168.65 376.14" fill="none" stroke="#1d4ed8" stroke-width="15.757" stroke-linecap="round" stroke-linejoin="round"/>
<path d="M744.52 11.01L108.61 434.95" fill="none" stroke="#1d4ed8" stroke-width="15.757" stroke-linecap="round" stroke-linejoin="round"/>
<path d="M775.16 13.94L743.49 2.31" fill="none" stroke="#1d4ed8" stroke-width="15.757" stroke-linecap="round" stroke-linejoin="round"/>
<path d="M758.02 15.97L744.52 11.01" fill="none" stroke="#1d4ed8" stroke-width="15.757" stroke-linecap="round" stroke-linejoin="round"/>
<path d="M24.84 291.44L66.95 291.44" fill="none" stroke="#1d4ed8" stroke-width="15.757" stroke-linecap="round" stroke-linejoin="round"/>
</svg>
